<svg width="313pt" height="190pt" viewBox="0 0 313 190" xmlns="http://www.w3.org/2000/svg"><path fill="none" d="M0 0h313v190H0V0z"/><path fill="#ff0" d="M154.11 3.14c2.14-2.82 6.61-2.83 8.77-.02 8.75 9.35 14.34 21.49 16.6 34.03.55 7.96.63 16.05-.86 23.93-.17 1.52-.58 3.31.68 4.51 2.58 3.26 6.68 4.98 8.98 8.5.58 3.31-.34 6.66-.69 9.96-1.19 7.54-1.59 15.22-3.34 22.67-1.13-.04-2.25-.02-3.36-.21-5.21-5.26-9.38-11.48-14.56-16.76-1.97-2.12-4.85-.46-7.26-.48-2.79.42-6.09-1.88-8.41.49-5.17 5.28-9.34 11.49-14.54 16.74-1.11.21-2.24.19-3.36.22-1.78-7.46-2.16-15.16-3.36-22.72-.35-3.29-1.27-6.64-.67-9.94 2.56-4 7.73-5.62 9.82-9.97-1.13-9.38-2.09-18.94-.8-28.38 2.52-11.99 7.92-23.6 16.36-32.57z"/><path d="M154.31 27.42c4.48-2.78 10.8-.13 12.59 4.65 3.2 6.37-4.25 14.35-10.84 11.99-3.59-1.07-6.26-4.41-6.7-8.11-.09-3.43 1.82-6.99 4.95-8.53z"/><path fill="#ff0" d="M14.34 38.09c8.25-2.22 17.23-1.06 24.91 2.55-1.31 3.71-2.61 7.42-3.85 11.15-5.39-2.18-11.65-4.1-17.35-1.91-3.99 1.71-3.97 7.38-1.08 10.11 5.55 5.61 13.54 8.22 18.53 14.49 5.78 6.47 6.48 16.36 3.07 24.11-2.34 5.34-7.71 8.67-13.27 9.78-8.22 1.64-16.9.28-24.43-3.33 1.36-3.97 2.73-7.94 4.08-11.91 5.51 3.06 12.11 5.17 18.34 3.14 3.12-.84 5.17-4.1 4.66-7.28-.19-4.14-3.87-6.74-6.94-8.91-5.55-3.66-11.75-6.9-15.39-12.7-3.59-5.05-3.95-11.68-2.7-17.56 1.22-5.66 5.83-10.32 11.42-11.73zM67.51 38.63c9.45-1.62 19.4-2.82 28.73.09 6.72 2.13 11.41 8.57 12.23 15.45 1.11 8.15.28 17.44-5.67 23.66-5.75 6.07-14.9 6.95-22.74 5.78.16 8.13.04 16.26.07 24.39h-12.6c-.01-23.13.03-46.25-.02-69.37zM222.57 40.56c8.38-5.08 18.95-4.18 27.85-1.01-.83 3.78-1.68 7.56-2.52 11.33-5.97-2.19-13.72-3.47-18.87 1.18-5.19 5.15-5.77 13.03-5.92 19.94-.04 7.73.59 16.69 6.76 22.19 5.36 4.57 13.21 3.03 18.93-.03.76 3.62 1.59 7.22 2.52 10.81-7.57 4.48-17.24 5.31-25.48 2.28-5.63-1.97-9.78-6.83-12.06-12.21-4.23-9.72-4.38-20.67-3.39-31.06 1.04-8.84 4.39-18.37 12.18-23.42zM277.53 38h34.58c.4 3.99.4 8.01 0 12h-21.98v17h20.27v12h-20.27v17h22.04c.38 3.99.36 8.01-.06 12-11.52 0-23.05.01-34.58 0V38z"/><path d="M80.16 48.34c3.73-.4 7.87-.94 11.19 1.27 3.5 2.1 4.35 6.6 4.35 10.38.01 4.07-.78 8.86-4.47 11.26-3.26 2.21-7.36 1.86-11.07 1.42-.04-8.11-.04-16.22 0-24.33z"/><path fill="#ff0" d="M137.01 125.44c9.91-5.85 16.92-15.35 22.15-25.4 5.22 10.04 12.04 19.67 21.82 25.72-5.47 21.85-11.09 43.91-21.03 64.22-11.13-20.09-17.53-42.35-22.94-64.54z"/><path d="M141.58 127.3c7.21-4.93 12.97-11.65 17.57-19.02 4.51 7.41 10.17 14.21 17.26 19.29-4.5 18.09-9.43 36.16-16.66 53.38-8.24-17.06-13.64-35.31-18.17-53.65z"/></svg>